<?xml version="1.0" standalone="no"?><!DOCTYPE svg PUBLIC "-//W3C//DTD SVG 1.1//EN" "http://www.w3.org/Graphics/SVG/1.1/DTD/svg11.dtd"><svg t="1533631917155" class="icon" style="" viewBox="0 0 1024 1024" version="1.1" xmlns="http://www.w3.org/2000/svg" p-id="6502" xmlns:xlink="http://www.w3.org/1999/xlink" width="200" height="200"><defs><style type="text/css"></style></defs><path d="M705.15534 923.358H317.87934c-18.788 0-34.377-8.332-43.892-23.45-7.199-11.44-10.843-26.498-10.843-44.747v-707.97c0-37.595 29.78-68.185 66.387-68.185H705.15534c36.609 0 66.394 30.59 66.394 68.185V855.16c0 37.601-29.779 68.198-66.394 68.198zM329.53234 118.85c-14.643 0-26.55 12.717-26.55 28.341V855.16c0 28.353 10.441 28.353 14.897 28.353h387.282c14.636 0 26.543-12.717 26.543-28.353V147.191c0-15.631-11.907-28.341-26.543-28.341H329.53234z m0 0" p-id="6503"></path><path d="M962.80834 327.826l-41.576 0.935c64.461 82.192 87.528 194.585 51.647 303.43-12.42 37.633-31.155 71.511-54.197 101.414l41.752-0.933c18.068-27.42 33.119-57.329 43.825-89.832 36.732-111.459 17.738-226.201-41.451-315.014z m-98.923 45.137l-43.49 1.64c7.393 13.949 14.17 28.359 19.579 43.723 29.397 83.462 22.388 171.322-12.523 246.446l42.886-1.602c32.458-79.734 37.524-170.667 6.991-257.451-3.975-11.272-8.503-22.148-13.443-32.756zM102.12034 328.76l-41.556-1.006C1.21334 416.458-17.97666 531.178 18.56734 642.702c10.655 32.516 25.661 62.451 43.669 89.904l41.752 1.011c-22.99-29.941-41.674-63.859-54.007-101.517-35.714-108.904-12.452-221.265 52.139-303.34z m100.752 45.999l-43.482-1.707c-4.949 10.597-9.501 21.486-13.482 32.744-30.688 86.731-25.779 177.666 6.549 257.451l42.873 1.687c-34.779-75.195-41.627-163.055-12.094-246.479 5.428-15.343 12.23-29.754 19.636-43.696z m100.331 323.994h428.548v-34.228H303.20334v34.228z m122.561-445.038h-85.752v85.582h85.752v-85.582z m137.206 0h-85.753v85.582h85.753v-85.582z m137.204 0h-85.752v85.582h85.752v-85.582z m-274.41 136.932h-85.752v85.584h85.752v-85.584z m137.206 0h-85.753v85.584h85.753v-85.584z m137.204 0h-85.752v85.584h85.752v-85.584z m0 0" p-id="6504"></path></svg>