<?xml version="1.0" standalone="no"?><!DOCTYPE svg PUBLIC "-//W3C//DTD SVG 1.1//EN" "http://www.w3.org/Graphics/SVG/1.1/DTD/svg11.dtd"><svg t="1535082731305" class="icon" style="" viewBox="0 0 1024 1024" version="1.1" xmlns="http://www.w3.org/2000/svg" p-id="6377" xmlns:xlink="http://www.w3.org/1999/xlink" width="200" height="200"><defs><style type="text/css"></style></defs><path d="M34.133333 0h955.733334v1024H34.133333V0z m68.266667 68.266667v887.466666h819.2V68.266667H102.4z m85.333333 85.333333h648.533334v409.6H187.733333V153.6z m68.266667 68.266667v273.066666h512V221.866667H256z m446.9248 481.28v-0.170667a90.3168 90.3168 0 0 1 3.464533 128.5632 16.861867 16.861867 0 0 1-20.309333 0 15.0528 15.0528 0 0 1 0-16.861867 65.4848 65.4848 0 0 0 0-94.685866 11.9296 11.9296 0 0 1 16.8448-16.8448z m33.314133-51.968l0.1536-0.443734a152.32 152.32 0 0 1 3.310934 209.834667 16.861867 16.861867 0 0 1-20.309334 0 15.0528 15.0528 0 0 1 0-16.861867 126.737067 126.737067 0 0 0 0-175.957333 11.895467 11.895467 0 0 1 16.8448-16.554667z m24.2688-34.065067v-0.170667c3.515733-3.396267 10.2912-3.396267 20.309334 0a204.253867 204.253867 0 0 1 0 290.986667 16.861867 16.861867 0 0 1-20.309334 0 15.0528 15.0528 0 0 1 0-16.878933 181.674667 181.674667 0 0 0 0-257.0752 15.0528 15.0528 0 0 1 0-16.861867z m-422.280533 101.444267l0.1536 0.1536a65.4848 65.4848 0 0 0 0 94.685866 15.0528 15.0528 0 0 1 0 16.8448 17.015467 17.015467 0 0 1-20.309333 0 91.972267 91.972267 0 0 1 0-131.9936 15.0528 15.0528 0 0 1 16.8448 0c6.621867 3.447467 6.621867 13.533867 3.310933 20.309334z m-39.304533-49.7664l0.1536 0.170666a127.658667 127.658667 0 0 0 3.310933 179.2512 15.0528 15.0528 0 0 1 0 16.861867 16.861867 16.861867 0 0 1-20.3264 0 153.224533 153.224533 0 0 1 0-213.128533 11.9296 11.9296 0 0 1 16.861867 16.8448zM194.218667 763.392l0.1536 0.170667a158.651733 158.651733 0 0 0 57.4976 128.529066 15.0528 15.0528 0 0 1 0 16.861867 16.861867 16.861867 0 0 1-20.309334 0 204.253867 204.253867 0 0 1 0-290.952533 11.9296 11.9296 0 1 1 16.8448 16.8448A184.832 184.832 0 0 0 194.218667 763.392zM375.466667 665.6h273.066666v204.8H375.466667V665.6z m34.133333 34.133333v136.533334h204.8v-136.533334H409.6z" p-id="6378" fill="#515a6e"></path></svg>