<?xml version="1.0" standalone="no"?><!DOCTYPE svg PUBLIC "-//W3C//DTD SVG 1.1//EN" "http://www.w3.org/Graphics/SVG/1.1/DTD/svg11.dtd"><svg t="1534479016728" class="icon" style="" viewBox="0 0 1024 1024" version="1.1" xmlns="http://www.w3.org/2000/svg" p-id="5521" xmlns:xlink="http://www.w3.org/1999/xlink" width="200" height="200"><defs><style type="text/css"></style></defs><path d="M721.701733 841.301586c0-147.515405-101.666565-270.939339-238.621958-304.935229l-0.071762 0 0 0c63.418451-28.933604 107.607027-92.681676 107.607027-166.902184 0-101.317483-82.142342-183.502396-183.502396-183.502396-101.316267 0-183.502396 82.142342-183.502396 183.502396 0 74.236321 44.165466 138.011151 107.608243 166.902184C194.248503 570.375626 92.596534 693.834834 92.596534 841.301586M682.34921 454.159551l235.954588 0c7.221238 0 13.100885-11.929577 13.100885-19.181223 0-7.251646-5.849239-19.181223-13.100885-19.181223L682.34921 415.797104c-7.221238 0-13.100885 11.929577-13.100885 19.181223C669.248325 442.229973 675.097564 454.159551 682.34921 454.159551L682.34921 454.159551zM918.278255 546.877716 734.775859 546.877716c-7.221238 0-13.100885 11.930794-13.100885 19.18244 0 7.220022 5.849239 19.181223 13.100885 19.181223l183.502396 0c7.221238 0 13.099669-11.930794 13.099669-19.181223C931.377923 558.808509 925.528684 546.877716 918.278255 546.877716L918.278255 546.877716zM918.278255 677.931568l-104.901952 0c-7.221238 0-13.099669 11.929577-13.099669 19.181223 0 7.221238 5.849239 19.181223 13.099669 19.181223l104.901952 0c7.221238 0 13.099669-11.929577 13.099669-19.181223C931.377923 689.861146 925.528684 677.931568 918.278255 677.931568L918.278255 677.931568z" p-id="5522" fill="#515a6e"></path></svg>