<?xml version="1.0" standalone="no"?><!DOCTYPE svg PUBLIC "-//W3C//DTD SVG 1.1//EN" "http://www.w3.org/Graphics/SVG/1.1/DTD/svg11.dtd"><svg t="1534500279105" class="icon" style="" viewBox="0 0 1024 1024" version="1.1" xmlns="http://www.w3.org/2000/svg" p-id="2220" xmlns:xlink="http://www.w3.org/1999/xlink" width="200" height="200"><defs><style type="text/css"></style></defs><path d="M511.333 128.655c-212.391 0-384.568 172.177-384.568 384.568s172.177 384.568 384.568 384.568 384.568-172.177 384.568-384.568S723.724 128.655 511.333 128.655zM739.167 741.057c-29.611 29.611-64.075 52.852-102.436 69.077-39.683 16.784-81.873 25.295-125.398 25.295s-85.715-8.51-125.398-25.295c-38.361-16.225-72.825-39.466-102.436-69.077-29.611-29.611-52.852-64.075-69.077-102.436-16.784-39.683-25.295-81.873-25.295-125.398s8.51-85.715 25.295-125.398C230.648 349.465 253.889 315 283.5 285.389c29.611-29.611 64.075-52.852 102.436-69.077 39.683-16.784 81.873-25.295 125.398-25.295s85.715 8.51 125.398 25.295c38.361 16.225 72.825 39.466 102.436 69.077 29.611 29.611 52.852 64.075 69.077 102.436 16.784 39.683 25.295 81.873 25.295 125.398s-8.51 85.715-25.295 125.398C792.019 676.982 768.778 711.446 739.167 741.057z" p-id="2221"></path><path d="M664.322 480.307 543.693 480.307 543.693 359.678c0-17.431-14.262-31.693-31.693-31.693l0 0c-17.431 0-31.693 14.262-31.693 31.693l0 120.629L359.678 480.307c-17.431 0-31.693 14.262-31.693 31.693l0 0c0 17.431 14.262 31.693 31.693 31.693l120.629 0 0 120.629c0 17.431 14.262 31.693 31.693 31.693l0 0c17.431 0 31.693-14.262 31.693-31.693L543.693 543.693l120.629 0c17.431 0 31.693-14.262 31.693-31.693l0 0C696.015 494.569 681.753 480.307 664.322 480.307z" p-id="2222"></path></svg>