<?xml version="1.0" standalone="no"?><!DOCTYPE svg PUBLIC "-//W3C//DTD SVG 1.1//EN" "http://www.w3.org/Graphics/SVG/1.1/DTD/svg11.dtd"><svg t="1534584030033" class="icon" style="" viewBox="0 0 1024 1024" version="1.1" xmlns="http://www.w3.org/2000/svg" p-id="3669" xmlns:xlink="http://www.w3.org/1999/xlink" width="200" height="200"><defs><style type="text/css"></style></defs><path d="M495.507456 857.43616c3.987456 3.82976 9.3952 5.971968 15.036416 5.971968 5.620736 0 11.029504-2.142208 15.015936-5.971968M525.559808 857.43616l403.750912-386.7136c17.759232-16.965632 16.654336-45.280256-1.051648-62.21312-17.673216-16.899072-46.267392-17.03936-64.0256-0.07168L510.523392 746.84416 156.850176 408.436736c-17.773568-16.96768-46.370816-16.827392-64.04096 0.07168-17.705984 16.932864-18.813952 45.247488-1.05472 62.21312l403.753984 386.7136" p-id="3670" fill="#515a6e"></path><path d="M495.251456 557.40416c3.987456 3.82976 9.3952 5.971968 15.036416 5.971968 5.620736 0 11.029504-2.142208 15.015936-5.971968M525.303808 557.40416l403.750912-386.7136c17.759232-16.965632 16.654336-45.280256-1.051648-62.21312-17.673216-16.899072-46.267392-17.03936-64.0256-0.07168L510.267392 446.81216 156.594176 108.404736c-17.773568-16.96768-46.370816-16.827392-64.04096 0.07168-17.705984 16.932864-18.813952 45.247488-1.05472 62.21312l403.753984 386.7136" p-id="3671" fill="#515a6e"></path></svg>