<?xml version="1.0" standalone="no"?><!DOCTYPE svg PUBLIC "-//W3C//DTD SVG 1.1//EN" "http://www.w3.org/Graphics/SVG/1.1/DTD/svg11.dtd"><svg t="1534583756894" class="icon" style="" viewBox="0 0 1024 1024" version="1.1" xmlns="http://www.w3.org/2000/svg" p-id="3495" xmlns:xlink="http://www.w3.org/1999/xlink" width="200" height="200"><defs><style type="text/css"></style></defs><path d="M931.971004 479.56017c-1.537006-2.074242-3.239787-4.152577-5.211698-6.246261L535.931039 79.084173c-9.783831-9.871835-22.729677-15.292288-36.479843-15.292288-13.853519 0-26.833135 5.455245-36.543288 15.292288-20.094664 20.23588-20.094664 53.261041 0 73.594135l357.651656 360.813672L465.908242 871.320669c-9.778714 9.852392-15.151072 22.899546-15.151072 36.846186 0 13.936407 5.406127 26.998911 15.117302 36.768415 9.710153 9.832949 22.666232 15.272845 36.514635 15.272845 13.784958 0 26.735921-5.411243 36.479843-15.272845l390.863059-394.205177C949.293531 530.986423 949.82565 499.917824 931.971004 479.56017z" p-id="3496" fill="#515a6e"></path><path d="M563.231825 479.56017c-1.531889-2.074242-3.234671-4.152577-5.206582-6.246261L167.196976 79.084173c-9.783831-9.871835-22.733771-15.292288-36.484959-15.292288-13.848403 0-26.833135 5.455245-36.543288 15.292288-20.094664 20.23588-20.094664 53.261041 0 73.594135l357.656773 360.813672L97.170087 871.320669c-9.778714 9.852392-15.151072 22.899546-15.151072 36.846186 0 13.936407 5.406127 26.998911 15.122419 36.768415 9.710153 9.832949 22.661116 15.272845 36.509519 15.272845 13.784958 0 26.735921-5.411243 36.479843-15.272845l390.867152-394.205177C580.555375 530.986423 581.086471 499.917824 563.231825 479.56017z" p-id="3497" fill="#515a6e"></path></svg>